<?xml version="1.0" encoding="UTF-8"?>
<svg xmlns="http://www.w3.org/2000/svg" xmlns:xlink="http://www.w3.org/1999/xlink" width="300px" height="150px" viewBox="0 0 300 150" version="1.1">
<g id="surface1">
<path style=" stroke:none;fill-rule:nonzero;fill:rgb(100%,100%,100%);fill-opacity:1;" d="M 158.640625 29.683594 C 149.832031 30.457031 145.707031 31.160156 139.472656 32.988281 L 136.589844 33.832031 L 138.113281 35.382812 C 138.957031 36.25 139.660156 37.046875 139.660156 37.1875 C 139.660156 37.304688 137.785156 38.5 135.511719 39.835938 C 122.554688 47.410156 110.789062 55.027344 107.207031 58.171875 L 105.941406 59.273438 L 103.667969 59.4375 C 98.488281 59.835938 93.238281 58.828125 90.261719 56.835938 L 88.976562 55.992188 L 82.976562 56.601562 C 65.917969 58.40625 51.714844 60.492188 44.78125 62.273438 C 43.070312 62.71875 41.101562 63.070312 40.445312 63.070312 C 36.4375 63.070312 30.277344 65.863281 25.355469 69.917969 C 23.996094 71.042969 23.316406 71.417969 21.957031 71.792969 C 17.832031 72.964844 13.050781 75.171875 9.46875 77.5625 C 7.007812 79.226562 3.726562 82.039062 2.460938 83.585938 L 1.570312 84.664062 L 1.851562 89.824219 C 2.015625 92.660156 2.226562 95.898438 2.34375 97.023438 C 2.507812 98.523438 2.484375 99.15625 2.273438 99.4375 C 2.109375 99.648438 1.546875 100.46875 1.007812 101.242188 L 0 102.671875 L 1.359375 103.28125 C 8.320312 106.496094 20.199219 108.746094 32.382812 109.191406 L 36.53125 109.332031 L 36.601562 107.128906 L 36.671875 104.921875 L 37.773438 104.757812 C 39.4375 104.476562 39.953125 104.78125 40.75 106.566406 C 43.023438 111.582031 48.414062 116.648438 53.683594 118.710938 C 59.683594 121.078125 66.574219 121.054688 72.359375 118.664062 C 77.328125 116.601562 82.15625 112.074219 84.640625 107.175781 C 85.132812 106.191406 85.648438 105.253906 85.789062 105.085938 C 85.953125 104.875 86.585938 104.804688 87.828125 104.851562 L 89.632812 104.921875 L 89.585938 106.496094 L 89.539062 108.042969 L 90.988281 108.183594 C 93.214844 108.371094 205.460938 108.863281 205.742188 108.675781 C 205.90625 108.582031 205.976562 108.019531 205.953125 107.292969 C 205.90625 106.636719 205.953125 105.957031 206.046875 105.792969 C 206.164062 105.605469 206.867188 105.511719 208.085938 105.511719 L 209.9375 105.511719 L 210.894531 107.316406 C 214.035156 113.363281 219.847656 118.054688 226.222656 119.695312 C 230.109375 120.679688 235.054688 120.726562 238.78125 119.789062 C 241.242188 119.179688 244.992188 117.421875 246.890625 115.992188 C 249.773438 113.785156 252.511719 110.550781 254.316406 107.152344 L 255.066406 105.722656 L 258.066406 105.582031 C 261.417969 105.441406 261.746094 105.558594 261.746094 106.824219 C 261.746094 107.550781 261.792969 107.597656 262.402344 107.503906 C 262.753906 107.433594 266.152344 106.964844 269.945312 106.449219 C 286.960938 104.125 290.964844 103.492188 291.785156 102.976562 C 292.769531 102.367188 298.183594 96.578125 298.699219 95.59375 C 299.355469 94.300781 299.449219 93.363281 299.074219 91.933594 C 298.535156 89.964844 298.652344 86.332031 299.355469 81.59375 C 300.082031 76.976562 300.035156 75.21875 299.261719 73.621094 C 298.933594 72.941406 297.503906 71.371094 295.371094 69.285156 C 292.441406 66.449219 291.902344 65.792969 291.269531 64.40625 C 290.894531 63.539062 290.519531 62.835938 290.472656 62.835938 C 290.425781 62.835938 287.921875 62.203125 284.921875 61.429688 L 279.4375 60.046875 L 279.4375 57.679688 L 278.03125 57.679688 C 277.257812 57.679688 275.898438 57.609375 275.03125 57.515625 L 273.4375 57.375 L 273.484375 56.132812 C 273.53125 55.429688 273.507812 54.816406 273.4375 54.769531 C 273.390625 54.722656 272.195312 54.816406 270.765625 55.003906 C 269.363281 55.171875 268.050781 55.3125 267.886719 55.335938 C 267.652344 55.335938 267.582031 54.910156 267.628906 53.621094 C 267.652344 52.707031 267.605469 51.886719 267.511719 51.839844 C 267.417969 51.792969 266.316406 51.933594 265.050781 52.167969 L 262.753906 52.589844 L 257.738281 50.832031 C 237.117188 43.5625 211.339844 36.203125 195.148438 32.964844 C 183.902344 30.691406 176.027344 29.800781 166.375 29.683594 C 162.695312 29.636719 159.226562 29.636719 158.640625 29.683594 M 172.230469 36.578125 C 178.957031 36.976562 187.511719 38.007812 188.121094 38.523438 C 188.308594 38.664062 188.378906 38.992188 188.285156 39.367188 C 188.027344 40.398438 182.519531 58.007812 182.402344 58.125 C 182.308594 58.21875 137.832031 59.765625 134.457031 59.789062 L 132.417969 59.789062 L 132.277344 58.898438 C 131.574219 54.652344 129.351562 51.816406 126.726562 51.816406 C 123.445312 51.816406 119.132812 54.605469 116.0625 58.734375 C 114.914062 60.28125 114.609375 60.445312 112.664062 60.46875 C 111.234375 60.492188 110.835938 60.234375 111.351562 59.625 C 111.867188 58.992188 131.574219 45.957031 134.785156 44.125 C 143.902344 38.898438 149.503906 37.28125 160.632812 36.601562 C 165.34375 36.320312 167.59375 36.320312 172.230469 36.578125 M 200.445312 41.054688 C 211.738281 43.890625 220.925781 46.894531 226.175781 49.472656 C 231.515625 52.074219 232.265625 53.621094 228.871094 54.863281 C 227.488281 55.359375 206.351562 57.023438 197.257812 57.375 C 193.4375 57.515625 193.085938 57.492188 192.945312 57.117188 C 192.78125 56.695312 193.953125 40.796875 194.1875 40.1875 C 194.398438 39.648438 195.523438 39.8125 200.445312 41.054688 M 184.863281 59.015625 C 185.402344 59.648438 186.269531 61.03125 186.808594 62.109375 L 187.816406 64.078125 L 187.816406 66.683594 C 187.792969 71.207031 186.410156 75.617188 182.800781 82.671875 C 180.410156 87.316406 179.144531 89.167969 176.472656 91.980469 C 173.613281 94.933594 171.175781 96.765625 167.921875 98.359375 C 163.796875 100.398438 162.695312 100.609375 155.007812 100.84375 C 145.894531 101.101562 108.519531 101.875 103.808594 101.875 L 99.941406 101.875 L 99.777344 100.46875 C 99.566406 98.851562 98.535156 85.207031 98.136719 78.828125 C 97.714844 72.261719 98.300781 69.097656 100.691406 65.160156 C 102.613281 61.96875 105.238281 59.273438 105.824219 59.859375 C 105.917969 59.953125 105.308594 60.726562 104.464844 61.617188 C 100.597656 65.605469 98.722656 70.457031 98.933594 75.804688 C 99.191406 81.617188 100.808594 100.234375 101.089844 100.539062 C 101.347656 100.796875 104.394531 100.796875 118.59375 100.492188 C 128.0625 100.28125 140.644531 100.070312 146.574219 100 C 157.703125 99.835938 160.5625 99.671875 162.976562 99.0625 C 168.929688 97.492188 175.160156 92.917969 178.769531 87.457031 C 181.230469 83.726562 185.425781 74.722656 186.316406 71.300781 C 186.832031 69.238281 186.902344 65.863281 186.433594 64.125 C 185.988281 62.4375 185.214844 61.054688 184.042969 59.789062 C 183.480469 59.179688 183.011719 58.523438 183.011719 58.289062 C 183.011719 57.5625 183.902344 57.914062 184.863281 59.015625 M 41.6875 63.632812 C 41.921875 63.914062 41.6875 64.289062 40.492188 65.699219 C 37.304688 69.332031 32.3125 73.058594 27.535156 75.382812 C 23.527344 77.304688 19.074219 78.546875 18.628906 77.867188 C 18.371094 77.421875 19.613281 75.828125 21.863281 73.761719 C 27.371094 68.722656 33.25 65.300781 39.015625 63.773438 C 41.03125 63.234375 41.335938 63.210938 41.6875 63.632812 M 291.972656 68.019531 C 292.535156 69.214844 292.980469 70.503906 293.003906 70.996094 L 293.027344 71.863281 L 290.214844 72.003906 C 288.671875 72.097656 283.914062 72.167969 279.671875 72.191406 C 271.210938 72.214844 270.789062 72.167969 267.511719 70.808594 C 265.355469 69.894531 264.207031 69.191406 264.464844 68.933594 C 264.582031 68.816406 268.050781 68.347656 272.171875 67.878906 C 276.296875 67.386719 281.734375 66.777344 284.242188 66.472656 C 286.75 66.191406 289.304688 65.933594 289.886719 65.910156 L 290.964844 65.886719 Z M 64.605469 75.96875 C 67.933594 76.414062 70.765625 77.515625 73.976562 79.625 C 76.460938 81.242188 78.101562 82.882812 79.554688 85.207031 C 84.734375 93.527344 83.398438 103.164062 76.039062 110.574219 C 74.210938 112.425781 71.515625 113.949219 68.425781 114.933594 C 65.964844 115.6875 60.550781 115.710938 57.832031 114.957031 C 53.425781 113.714844 51.082031 112.355469 48.414062 109.472656 C 42.226562 102.765625 41.242188 94.230469 45.648438 85.699219 C 47.546875 82.039062 52.347656 78.21875 56.941406 76.695312 C 59.660156 75.804688 61.816406 75.617188 64.605469 75.96875 M 235.289062 75.96875 C 245.34375 77.421875 252.933594 86.753906 252.300781 96.835938 C 251.691406 106.285156 245.484375 113.550781 236.320312 115.476562 C 233.695312 116.039062 229.503906 116.039062 227.535156 115.476562 C 219.636719 113.269531 213.238281 105.722656 212.605469 97.84375 C 212.300781 94.160156 213.519531 89.097656 215.511719 85.628906 C 218.558594 80.375 223.363281 77.164062 229.832031 76.085938 C 232.078125 75.710938 233.320312 75.6875 235.289062 75.96875 M 11.527344 84.898438 C 14.082031 85.441406 16.144531 86.988281 17.246094 89.144531 C 17.550781 89.753906 17.808594 90.363281 17.808594 90.503906 C 17.808594 90.644531 16.519531 90.738281 14.175781 90.738281 L 10.542969 90.738281 L 10.542969 92.167969 L 7.570312 92.097656 L 4.59375 92.027344 L 4.40625 91.089844 C 4.289062 90.574219 3.9375 89.917969 3.632812 89.613281 C 2.554688 88.605469 3.023438 86.589844 4.523438 85.699219 C 6.234375 84.6875 9 84.359375 11.527344 84.898438 M 10.566406 93.246094 C 10.707031 93.386719 10.847656 94.136719 10.871094 94.886719 L 10.894531 96.25 L 8.273438 96.320312 C 5.296875 96.390625 5.34375 96.414062 5.039062 94.394531 C 4.921875 93.550781 4.96875 93.199219 5.203125 93.035156 C 5.648438 92.730469 10.242188 92.917969 10.566406 93.246094 M 10.542969 97.304688 C 10.542969 97.75 9.84375 99.273438 9.421875 99.71875 C 8.90625 100.28125 7.429688 101.054688 6.84375 101.054688 C 6.46875 101.054688 6.328125 100.75 6.023438 99.226562 C 5.835938 98.242188 5.71875 97.351562 5.789062 97.234375 C 5.953125 96.976562 10.542969 97.023438 10.542969 97.304688 "/>
<path style=" stroke:none;fill-rule:nonzero;fill:rgb(100%,100%,100%);fill-opacity:1;" d="M 59.074219 77.726562 C 50.683594 79.554688 45.953125 84.710938 44.640625 93.480469 C 44.21875 96.296875 44.21875 97.84375 44.617188 100.117188 C 45.8125 106.707031 50.472656 111.394531 57.996094 113.621094 C 59.777344 114.160156 60.550781 114.253906 62.917969 114.253906 C 66.339844 114.253906 68.472656 113.738281 71.703125 112.167969 C 73.601562 111.230469 74.234375 110.761719 76.039062 108.933594 C 77.210938 107.761719 78.5 106.191406 78.945312 105.464844 C 80.632812 102.554688 81.734375 98.078125 81.453125 95.171875 C 80.890625 89.589844 78.382812 84.570312 74.632812 81.523438 C 72.78125 80.023438 69.503906 78.453125 67.019531 77.84375 C 64.675781 77.304688 61.347656 77.257812 59.074219 77.726562 M 229.199219 77.726562 C 224.886719 78.710938 222.238281 80.09375 219.542969 82.765625 C 217.832031 84.476562 217.363281 85.113281 216.308594 87.222656 C 214.691406 90.503906 214.082031 93.316406 214.246094 96.953125 C 214.316406 99.109375 214.480469 99.859375 215.089844 101.546875 C 216.261719 104.6875 217.714844 107.011719 220.011719 109.285156 C 223.082031 112.332031 226.175781 113.714844 230.929688 114.160156 C 240.375 115.074219 248.203125 109.871094 250.519531 101.171875 C 250.894531 99.71875 251.011719 98.570312 251.035156 96.132812 C 251.058594 92.308594 250.683594 90.597656 249.210938 87.574219 C 246.9375 82.882812 243.351562 79.835938 238.078125 78.078125 C 236.085938 77.398438 231.421875 77.210938 229.199219 77.726562 M 135.089844 34.441406 C 132.910156 35.359375 122.226562 40.492188 102.636719 50.105469 C 98.183594 52.285156 93.613281 54.488281 92.488281 54.980469 L 90.402344 55.921875 L 91.574219 56.460938 C 94.199219 57.65625 100.035156 58.570312 103.269531 58.3125 C 104.722656 58.195312 104.816406 58.148438 111.5625 53.691406 C 120.75 47.644531 129.1875 42.25 133.449219 39.742188 C 135.394531 38.617188 137.105469 37.539062 137.292969 37.375 C 137.574219 37.117188 137.480469 36.859375 136.707031 35.664062 C 136.214844 34.863281 135.746094 34.230469 135.675781 34.253906 C 135.605469 34.253906 135.347656 34.347656 135.089844 34.441406 "/>
</g>
</svg>
